<svg id="e2pelZQPVb61" xmlns="http://www.w3.org/2000/svg" xmlns:xlink="http://www.w3.org/1999/xlink" viewBox="0 0 23 26" shape-rendering="geometricPrecision" text-rendering="geometricPrecision" project-id="96f8f8d130f2484c9da47a8c5bcb2458" export-id="b912c3b06d204f0aa693404628e4ba9c" cached="false"><g transform="matrix(.42 0 0 0.4 11.5 13)"><path d="M22.35,-13.05q.65,1.15.65,2.5v21.05q0,1.35-.65,2.5L20.5,14.85l-18,10.5Q1.35,26,0,26t-2.5-.65l-18-10.5q-1.15-.7-1.8-1.85-.7-1.15-.7-2.5v-21.05q0-1.35.7-2.5.65-1.15,1.8-1.8l18-10.45q1.15-.7,2.5-.7t2.5.7l18,10.45q1.15.65,1.85,1.8" fill="none" stroke="#000" stroke-width="1.5"/></g></svg>
