<svg id="eXi2UNrSh0A1" xmlns="http://www.w3.org/2000/svg" xmlns:xlink="http://www.w3.org/1999/xlink" viewBox="0 0 23 26" shape-rendering="geometricPrecision" text-rendering="geometricPrecision" project-id="21d98b408fb2441baeb8ad7c7dd43cf5" export-id="ba4adca69c8e48e283e08ab04abf24f9" cached="false"><g transform="matrix(.4 0 0 0.4 11.5 13)"><path d="M22.35,-13.05q.65,1.15.65,2.5v21.05q0,1.35-.65,2.5L20.5,14.85l-18,10.5Q1.35,26,0,26t-2.5-.65l-18-10.5q-1.15-.7-1.8-1.85-.7-1.15-.7-2.5v-21.05q0-1.35.7-2.5.65-1.15,1.8-1.8l18-10.45q1.15-.7,2.5-.7t2.5.7l18,10.45q1.15.65,1.85,1.8M-13.7,-1.45h1.15q1.15,0,1.8.7.65.75.65,2.15t-.65,2.1q-.6.7-1.8.7h-1.15v-5.65m1.05,8.7q3,0,4.6-1.55Q-6.5,4.15,-6.5,1.4t-1.55-4.3q-1.6-1.6-4.6-1.6h-2.7q-.9,0-1.4.5-.45.45-.45,1.35v8.05q0,.9.45,1.4l1.4.45h2.7m16.2-8q0-1.75-1.05-2.8-1.1-1.05-3.3-1.05-2.35,0-3.7,1.05-.8.65-.8,1.5q0,.6.35,1q.4.45,1,.45.45,0,1.2-.35.8-.4,1.35-.4l.9.25q.25.3.25.8q0,1.45-3.45,4.05l-.45.3-.35.35-.3.25-.25.4-.15.35-.05.45q0,.6.35,1q.4.4,1.2.4h6.2L3.7,6.9q.4-.4.4-1.1t-.4-1.1q-.45-.4-1.2-.4h-2.15q3.2-2.75,3.2-5.05M9.5,3.55Q8.95,2.9,8.95,1.4t.55-2.15q.55-.7,1.4-.7t1.45.7q.55.65.55,2.15q0,1.45-.55,2.15-.55.65-1.45.65-.85,0-1.4-.65M10.95,7.4q2.4,0,4-1.6q1.6-1.55,1.6-4.4q0-2.75-1.65-4.35-1.6-1.65-4-1.65-2.35,0-4,1.65-1.6,1.6-1.6,4.35q0,2.85,1.6,4.4q1.6,1.6,4.05,1.6" fill="none" stroke="#000"/></g></svg>
