<svg id="e0MX4hlfwqI1" xmlns="http://www.w3.org/2000/svg" xmlns:xlink="http://www.w3.org/1999/xlink" viewBox="0 0 25.035721 25" shape-rendering="geometricPrecision" text-rendering="geometricPrecision" project-id="cdc41a6b3c224fc4ba370f58bad7b669" export-id="e3a4630b22e24346abf4f39f42e072f3" cached="false"><g transform="matrix(.4 0 0 0.4 12.506317 12.5)"><path d="M-4.45,-22.2q.85-1.8,2.75-2.45h-.05q1.7-.7,3.55,0q1.75.65,2.7,2.4l20,40v.05q.75,1.55.45,3.25l-.05.1q-.4,1.6-1.65,2.7l-.1.1Q21.75,25,20,25h-40q-1.75,0-3.1-1.1-1.45-1.15-1.75-2.85v.1q-.4-1.8.45-3.4h-.05l20-40v.05M10.8,13.85q0-.65-.35-1.05t-1-.4q0-2-1.6-2-1.25,0-1.75,1.85v.15h-1.65l2.6-4.55.3-.95q0-.65-.5-1.1L5.6,5.4q-.8,0-1.35.9l-3.3,6.05q-.4.7-.45,1.35t.4,1.15q.45.45,1.35.45h3.6v.2q0,.8.5,1.3.5.45,1.3.45.85,0,1.3-.45.5-.5.5-1.3v-.2q.65,0,1-.4t.35-1.05M-7.45,8.55h1.15q1.15,0,1.8.7.65.75.65,2.15t-.65,2.1q-.6.7-1.8.7h-1.15v-5.65m1.05,8.7q3,0,4.6-1.55q1.55-1.55,1.55-4.3t-1.55-4.3q-1.6-1.6-4.6-1.6h-2.7q-.9,0-1.4.5-.45.45-.45,1.35v8.05q0,.9.45,1.4.5.45,1.4.45h2.7" fill="none" stroke="#000"/></g></svg>
