<svg id="ekhLFMwgK2d1" xmlns="http://www.w3.org/2000/svg" xmlns:xlink="http://www.w3.org/1999/xlink" viewBox="0 0 24.049999 13.05" shape-rendering="geometricPrecision" text-rendering="geometricPrecision" project-id="de457e5a3f444671812e0e126bd8f21d" export-id="6d3a2a1c02124de481e61c6103f00bd4" cached="false"><g transform="matrix(.39 0 0 0.4 12.414999 6.525)"><path d="M-21.05,5q-2.05,0-3.5-1.45-1.5-1.5-1.5-3.55t1.5-3.5q1.45-1.5,3.5-1.5h32.85L8.9,-7.9q-.9-.9-.9-2.15t.9-2.1q.85-.9,2.1-.9t2.15.9L23.2,-2.1q.85.85.85,2.1t-.85,2.1L13.15,12.15q-.9.9-2.1.9-1.25,0-2.15-.85-.9-.9-.9-2.1q0-1.25.9-2.15L11.85,5h-32.9" fill="none" stroke="#000"/></g></svg>
