<svg id="eE38JBGrMsA1" xmlns="http://www.w3.org/2000/svg" xmlns:xlink="http://www.w3.org/1999/xlink" viewBox="0 0 300 300" shape-rendering="geometricPrecision" text-rendering="geometricPrecision" project-id="dd01209da9104123ab4208075d899bb6" export-id="07ac4e0552134c7aacfed62162a3fd44" cached="false"><g><line x1="25" y1="0" x2="100" y2="0" transform="translate(25 50)" fill="none" stroke="#3f5787" stroke-width="3"/><line x1="0" y1="0" x2="75" y2="0" transform="translate(175 50)" fill="none" stroke="#3f5787" stroke-width="3"/><line x1="0" y1="0" x2="75" y2="0" transform="translate(175 250)" fill="none" stroke="#3f5787" stroke-width="3"/><line x1="0" y1="0" x2="75" y2="0" transform="translate(50 250)" fill="none" stroke="#3f5787" stroke-width="3"/><line x1="0" y1="0" x2="0" y2="75" transform="translate(50 175)" fill="none" stroke="#3f5787" stroke-width="3"/><line x1="0" y1="0" x2="0" y2="75" transform="translate(250 175)" fill="none" stroke="#3f5787" stroke-width="3"/><line x1="0" y1="0" x2="0" y2="75" transform="translate(50 50)" fill="none" stroke="#3f5787" stroke-width="3"/><line x1="0" y1="0" x2="0" y2="75" transform="translate(250 50)" fill="none" stroke="#3f5787" stroke-width="3"/></g><g opacity="0.5"><line x1="0" y1="0" x2="0" y2="100" transform="translate(150 100)" fill="none" stroke="#000" stroke-width="3"/><line x1="0" y1="0" x2="100" y2="0" transform="translate(100 150)" fill="none" stroke="#000" stroke-width="3"/></g></svg>
