<svg id="e1MCmQxGEwn1" xmlns="http://www.w3.org/2000/svg" xmlns:xlink="http://www.w3.org/1999/xlink" viewBox="0 0 950 950" shape-rendering="geometricPrecision" text-rendering="geometricPrecision" project-id="4e8cc844f84a454d93da1fcb23909f46" export-id="e738fdf80fe64e4f8a9b130895f5a97a" cached="false"><path d="M1554.628906,801.898438c0-81.1875,65.820313-147.007813,147.019532-147.007813h596.703124c38.988282,0,76.386719,15.488281,103.957032,43.058594s43.0625,64.960937,43.0625,103.949219v596.703124c0,39-15.492188,76.386719-43.0625,103.957032s-64.96875,43.0625-103.957032,43.0625h-596.703124c-81.199219,0-147.019532-65.820313-147.019532-147.019532v-596.703124" fill="#fff"/><path d="M1554.628906,2601.398438c0-81.199219,65.820313-147.019532,147.019532-147.019532h596.703124c81.199219,0,147.019532,65.820313,147.019532,147.019532v596.703124c0,81.191407-65.820313,147.011719-147.019532,147.011719h-596.703124c-81.199219,0-147.019532-65.820312-147.019532-147.011719v-596.703124" fill="#fff"/><path d="M354.6875,2601.398438c0-81.199219,65.820312-147.019532,147.011719-147.019532h596.710937c81.191406,0,147.011719,65.820313,147.011719,147.019532v596.703124c0,81.191407-65.820313,147.011719-147.011719,147.011719h-596.710937c-81.191407,0-147.011719-65.820312-147.011719-147.011719v-596.703124" transform="translate(.000001 0)" fill="#fff"/><path d="M2754.578125,801.898438c0-81.1875,65.820313-147.007813,147.011719-147.007813h596.710937c81.1875,0,147.007813,65.820313,147.007813,147.007813v596.703124c0,81.199219-65.820313,147.019532-147.007813,147.019532h-596.710937c-81.191406,0-147.011719-65.820313-147.011719-147.019532v-596.703124" fill="#fff"/><path d="M2754.578125,2601.398438c0-38.988282,15.492187-76.386719,43.0625-103.957032s64.960937-43.0625,103.949219-43.0625h596.710937c38.988281,0,76.378907,15.492188,103.949219,43.0625s43.058594,64.96875,43.058594,103.957032v596.703124c0,38.988282-15.488282,76.382813-43.058594,103.953126s-64.960938,43.058593-103.949219,43.058593h-596.710937c-38.988282,0-76.378906-15.488281-103.949219-43.058593s-43.0625-64.964844-43.0625-103.953126v-596.703124" fill="#fff"/><g transform="translate(-2724.943359-2424.746093)"><path d="M27545.78125,13986.015625c0,389.882813,154.921875,763.867187,430.625,1039.570313s649.609375,430.625,1039.492188,430.625h5967.109374c389.882813,0,763.789063-154.921876,1039.492188-430.625s430.585938-649.6875,430.585938-1039.570313v-5967.03125c0-389.882813-154.882813-763.828125-430.585938-1039.53125s-649.609375-430.585937-1039.492188-430.585937h-5967.109374c-389.882813,0-763.789063,154.882812-1039.492188,430.585937s-430.625,649.648437-430.625,1039.53125v5967.03125Zm0,0" transform="matrix(.1 0 0-.1 0 4000)" fill="none" stroke="#000" stroke-width="316.859"/></g></svg>
