<svg id="eiJSCR73E0Q1" xmlns="http://www.w3.org/2000/svg" xmlns:xlink="http://www.w3.org/1999/xlink" viewBox="0 0 950 950" shape-rendering="geometricPrecision" text-rendering="geometricPrecision" project-id="4e8cc844f84a454d93da1fcb23909f46" export-id="6683ad5f452c4bc7a04fc4c6bb5b2da5" cached="false"><path d="M1554.628906,801.898438c0-81.1875,65.820313-147.007813,147.019532-147.007813h596.703124c38.988282,0,76.386719,15.488281,103.957032,43.058594s43.0625,64.960937,43.0625,103.949219v596.703124c0,39-15.492188,76.386719-43.0625,103.957032s-64.96875,43.0625-103.957032,43.0625h-596.703124c-81.199219,0-147.019532-65.820313-147.019532-147.019532v-596.703124" fill="#fff"/><path d="M1554.628906,2601.398438c0-81.199219,65.820313-147.019532,147.019532-147.019532h596.703124c81.199219,0,147.019532,65.820313,147.019532,147.019532v596.703124c0,81.191407-65.820313,147.011719-147.019532,147.011719h-596.703124c-81.199219,0-147.019532-65.820312-147.019532-147.011719v-596.703124" fill="#fff"/><path d="M354.6875,2601.398438c0-81.199219,65.820312-147.019532,147.011719-147.019532h596.710937c81.191406,0,147.011719,65.820313,147.011719,147.019532v596.703124c0,81.191407-65.820313,147.011719-147.011719,147.011719h-596.710937c-81.191407,0-147.011719-65.820312-147.011719-147.011719v-596.703124" transform="translate(.000001 0)" fill="#fff"/><path d="M2754.578125,801.898438c0-81.1875,65.820313-147.007813,147.011719-147.007813h596.710937c81.1875,0,147.007813,65.820313,147.007813,147.007813v596.703124c0,81.199219-65.820313,147.019532-147.007813,147.019532h-596.710937c-81.191406,0-147.011719-65.820313-147.011719-147.019532v-596.703124" fill="#fff"/><path d="M2754.578125,2601.398438c0-38.988282,15.492187-76.386719,43.0625-103.957032s64.960937-43.0625,103.949219-43.0625h596.710937c38.988281,0,76.378907,15.492188,103.949219,43.0625s43.058594,64.96875,43.058594,103.957032v596.703124c0,38.988282-15.488282,76.382813-43.058594,103.953126s-64.960938,43.058593-103.949219,43.058593h-596.710937c-38.988282,0-76.378906-15.488281-103.949219-43.058593s-43.0625-64.964844-43.0625-103.953126v-596.703124" fill="#fff"/><g transform="translate(-2724.943359-2424.746093)"><path d="M27545.78125,13986.015625c0,389.882813,154.921875,763.867187,430.625,1039.570313s649.609375,430.625,1039.492188,430.625h5967.109374c389.882813,0,763.789063-154.921876,1039.492188-430.625s430.585938-649.6875,430.585938-1039.570313v-5967.03125c0-389.882813-154.882813-763.828125-430.585938-1039.53125s-649.609375-430.585937-1039.492188-430.585937h-5967.109374c-389.882813,0-763.789063,154.882812-1039.492188,430.585937s-430.625,649.648437-430.625,1039.53125v5967.03125Zm0,0" transform="matrix(.1 0 0-.1 0 4000)" fill="none" stroke="#000" stroke-width="316.859"/><path d="M3053.191406,3174.921875c0,49.8125-40.390625,90.195313-90.203125,90.195313-49.808593,0-90.199219-40.382813-90.199219-90.195313s40.390626-90.195313,90.199219-90.195313c49.8125,0,90.203125,40.382813,90.203125,90.195313"/><path d="M3053.191406,2624.570312c0,49.820313-40.390625,90.199219-90.203125,90.199219-49.808593,0-90.199219-40.378906-90.199219-90.199219c0-49.808593,40.390626-90.191406,90.199219-90.191406c49.8125,0,90.203125,40.382813,90.203125,90.191406"/><path d="M3527.101562,3174.921875c0,49.8125-40.382812,90.195313-90.203124,90.195313-49.808594,0-90.1875-40.382813-90.1875-90.195313s40.378906-90.195313,90.1875-90.195313c49.820312,0,90.203124,40.382813,90.203124,90.195313"/><path d="M3527.101562,2624.570312c0,49.820313-40.382812,90.199219-90.203124,90.199219-49.808594,0-90.1875-40.378906-90.1875-90.199219c0-49.808593,40.378906-90.191406,90.1875-90.191406c49.820312,0,90.203124,40.382813,90.203124,90.191406"/><path d="M3527.101562,2899.75c0,49.808594-40.382812,90.191406-90.203124,90.191406-49.808594,0-90.1875-40.382812-90.1875-90.191406c0-49.820312,40.378906-90.199219,90.1875-90.199219c49.820312,0,90.203124,40.378907,90.203124,90.199219"/><path d="M3053.191406,2899.75c0,49.808594-40.390625,90.191406-90.203125,90.191406-49.808593,0-90.199219-40.382812-90.199219-90.191406c0-49.820312,40.390626-90.199219,90.199219-90.199219c49.8125,0,90.203125,40.378907,90.203125,90.199219"/></g></svg>
