<svg id="e7BMKgFUjXE1" xmlns="http://www.w3.org/2000/svg" xmlns:xlink="http://www.w3.org/1999/xlink" viewBox="0 0 25 25" shape-rendering="geometricPrecision" text-rendering="geometricPrecision" project-id="e093348eea3b4f88ba14136661bb1260" export-id="eadd371c1a6f4a4c96fa36cb0188101a" cached="false"><g><path d="M7.1,-0.65l-1.25.15h-.05l1.1-1.65.35-1-.5-1.05q-.45-.4-1.2-.4l-.8.15-.55.35-.4.5-1.4,2.15q-.7,1.2-1.05,2.2-.4,1.05-.4,2.3q0,1.85,1.3,3.1Q3.5,7.4,5.8,7.4q2.25,0,3.55-1.3q1.3-1.25,1.3-3t-1.05-2.75q-1-1-2.5-1M23.6,-23.5Q25,-22.1,25,-20v40q0,2.05-1.4,3.55l-.05.05Q22.05,25,20,25h-40q-2.1,0-3.5-1.4Q-25,22.1,-25,20v-40q0-2.05,1.45-3.45l.1-.1Q-22.05,-25,-20,-25h40q2.1,0,3.6,1.5M5.75,1.6q.7,0,1.05.45.4.4.4,1.05q0,.7-.35,1.15t-1.05.45-1.05-.45Q4.4,3.85,4.4,3.1t.4-1.1q.4-.4.95-.4m-13.2-3.05h1.15q1.15,0,1.8.7.65.75.65,2.15t-.65,2.1q-.6.7-1.8.7h-1.15v-5.65m1.05,8.7q3,0,4.6-1.55q1.55-1.55,1.55-4.3t-1.55-4.3q-1.6-1.6-4.6-1.6h-2.7q-.9,0-1.4.5-.45.45-.45,1.35v8.05q0,.9.45,1.4.5.45,1.4.45h2.7" transform="matrix(.4 0 0 0.4 12.5 12.5)" fill="none" stroke="#000"/></g></svg>
